<svg fill="none" height="48" viewBox="0 0 48 48" width="48" xmlns="http://www.w3.org/2000/svg" xmlns:xlink="http://www.w3.org/1999/xlink"><linearGradient id="a" gradientUnits="userSpaceOnUse" x1="3.851" x2="34.471" y1="2.59599" y2="33.216"><stop offset="0" stop-color="#fff"/><stop offset="1" stop-color="#a7adb4"/></linearGradient><path d="m33.244 25-9.121-12h1.18c.84 0 1.631.392 2.139 1.061l7.059 9.287 7.059-9.287c.507-.669 1.298-1.061 2.138-1.061h1.18l-9.121 12 9.547 12.56h-1.18c-.84 0-1.631-.392-2.139-1.061l-7.485-9.847-7.485 9.847c-.508.668-1.299 1.061-2.139 1.061h-1.18zm-29.244 1v.783c0 4.199 2.776 8.032 6.868 8.972 4.439 1.02 8.49-1.247 10.228-4.842.27-.558.832-.913 1.451-.913h1.028c-1.319 4.655-5.616 8.059-10.707 7.999-6.091-.072-10.868-5.305-10.868-11.857v-.142-2-.716c0-5.427 3.812-10.273 9.171-11.136 6.884-1.109 12.829 4.177 12.829 10.852v3zm0-2h18v-1c0-5.648-5.202-10.08-11.076-8.768-4.12.921-6.924 4.77-6.924 9.478z" fill="url(#a)"/></svg>