<svg fill="none" height="800" viewBox="0 0 24 24" width="800" xmlns="http://www.w3.org/2000/svg"><g stroke="#222"><path d="m14 19h2c1.1046 0 2-.8954 2-2v-2.4384c0-.9178.6246-1.7177 1.5149-1.9403l1.515-.3788c.2524-.0631.2524-.4219 0-.485l-1.515-.3788c-.8903-.2226-1.5149-1.0225-1.5149-1.94025v-4.43845h-4"/><path d="m10 5h-2c-1.10457 0-2 .89543-2 2v2.43845c0 .91775-.62459 1.71765-1.51493 1.94025l-1.51493.3788c-.25249.0631-.25249.4219 0 .485l1.51493.3788c.89034.2226 1.51493 1.0225 1.51493 1.9403v4.4384h4"/></g></svg>