<svg fill="#52525b" height="800" viewBox="0 0 48 48" width="800" xmlns="http://www.w3.org/2000/svg"><path d="m0 0h48v48h-48z" fill="none"/><path d="m0 0h48v48h-48z" fill="none"/><path d="m24 1.9a21.6 21.6 0 0 0 -6.8 42.2c1 .2 1.8-.9 1.8-1.8v-2.9c-6 1.3-7.9-2.9-7.9-2.9a6.5 6.5 0 0 0 -2.2-3.2c-2-1.4.1-1.3.1-1.3a4.3 4.3 0 0 1 3.3 2c1.7 2.9 5.5 2.6 6.7 2.1a5.4 5.4 0 0 1 .5-2.9c-6.8-1.2-10.5-5.2-10.5-10.6a10.7 10.7 0 0 1 2.9-7.6 6.2 6.2 0 0 1 .3-6.4 8.9 8.9 0 0 1 6.4 2.9 15.1 15.1 0 0 1 5.4-.8 17.1 17.1 0 0 1 5.4.7 9 9 0 0 1 6.4-2.8 6.5 6.5 0 0 1 .4 6.4 10.7 10.7 0 0 1 2.8 7.6c0 5.4-3.7 9.4-10.5 10.6a5.4 5.4 0 0 1 .5 2.9v6.2a1.8 1.8 0 0 0 1.9 1.8 21.7 21.7 0 0 0 -6.9-42.2z"/></svg>