<svg fill="#52525b" height="800" viewBox="0 0 60.062 60.062" width="800" xmlns="http://www.w3.org/2000/svg"><path d="m60.046 11.196c.004-.024.011-.048.013-.072.007-.074-.001-.149-.01-.224-.002-.019.001-.037-.002-.056-.018-.099-.051-.196-.1-.289-.008-.016-.019-.031-.028-.047-.002-.002-.002-.005-.003-.008-.001-.002-.004-.003-.005-.006-.007-.011-.013-.023-.02-.033-.062-.091-.137-.166-.221-.23-.019-.014-.041-.022-.061-.035-.074-.049-.152-.089-.236-.116-.037-.012-.074-.018-.112-.025-.073-.015-.146-.022-.222-.02-.04.001-.078.003-.118.009-.026.004-.051 0-.077.006l-58.046 11.996c-.413.086-.729.421-.788.839s.15.828.523 1.025l16.632 8.773 2.917 16.187c-.002.012.001.025 0 .037-.01.08-.011.158-.001.237.005.04.01.078.02.117.023.095.06.184.11.268.01.016.01.035.021.051.003.005.008.009.012.013.013.019.031.034.046.053.047.058.096.111.152.156.009.007.015.018.025.025.015.011.032.014.047.024.061.04.124.073.191.099.027.01.052.022.08.03.09.026.183.044.277.044h.003c.004 0 .008-.002.012-.002.017.001.034.002.051.002.277 0 .527-.124.712-.315l11.079-7.386 11.6 7.54c.164.106.354.161.545.161.105 0 .212-.017.315-.051.288-.096.518-.318.623-.604l13.996-37.989c.013-.034.024-.069.033-.105.004-.015.005-.03.008-.044.003-.011.005-.023.007-.035zm-11.582 6.383-23.993 17.641c-.039.029-.07.065-.104.099-.013.012-.026.022-.037.035-.021.023-.04.046-.059.071-.018.024-.032.049-.048.074-.037.06-.068.122-.092.188-.005.013-.013.023-.017.036-.001.004-.005.006-.006.01l-2.75 8.937-2.179-12.091zm-25.556 29.015 2.726-9.004 4.244 2.759 1.214.789-4.124 2.749zm29.136-33.096-33.973 17.401-14.14-7.458zm-7.485 34.006-15.405-10.012-2.333-1.517 30.154-22.172z"/></svg>