<svg fill="#52525b" height="800" viewBox="0 0 45.057 45.057" width="800" xmlns="http://www.w3.org/2000/svg"><path d="m19.558 25.389c-.067.176-.155.328-.264.455-.108.129-.24.229-.396.301s-.347.107-.57.107c-.313 0-.572-.068-.78-.203-.208-.137-.374-.316-.498-.541-.124-.223-.214-.477-.27-.756-.057-.279-.084-.564-.084-.852 0-.289.027-.572.084-.853.056-.281.146-.533.27-.756.124-.225.29-.404.498-.541s.468-.203.78-.203c.271 0 .494.051.666.154.172.105.31.225.414.361.104.137.176.273.216.414.04.139.068.25.084.33h2.568c-.112-1.08-.49-1.914-1.135-2.502-.644-.588-1.558-.887-2.741-.895-.664 0-1.263.107-1.794.324-.532.215-.988.52-1.368.912s-.672.863-.876 1.416c-.204.551-.307 1.165-.307 1.836 0 .631.097 1.223.288 1.77.192.549.475 1.021.847 1.422s.825.717 1.361.949c.536.23 1.152.348 1.849.348.624 0 1.18-.105 1.668-.312.487-.209.897-.482 1.229-.822s.584-.723.756-1.146c.172-.422.259-.852.259-1.283h-2.593c-.039.2-.092.391-.161.566z"/><path d="m26.62 24.812h-.024l-1.404-5.196h-2.664l2.556 8.568h2.952l2.677-8.568h-2.713z"/><path d="m33.431 0h-28.252v45.057h34.699v-38.806zm3.447 42.056h-28.699v-39.056h23.706v4.76h4.992z"/></svg>