<svg fill="none" height="800" viewBox="0 0 32 32" width="800" xmlns="http://www.w3.org/2000/svg" xmlns:xlink="http://www.w3.org/1999/xlink"><linearGradient id="a" gradientUnits="userSpaceOnUse" x1="15.0103" x2="15.0103" y1="2" y2="27.0013"><stop offset="0" stop-color="#f88a36"/><stop offset="1" stop-color="#fd2020"/></linearGradient><path d="m22.1356 25.2715c-3.3006 1.8985-7.8389 2.0936-12.40481.1451-3.69692-1.5661-6.7644-4.3076-8.73079-7.4399.94387.7831 2.04503 1.4098 3.22484 1.9577 4.71526 2.2006 9.42956 2.0499 12.74716.0056-4.7194-3.6026-8.73574-8.3074-11.7245-12.14453-.62951-.6266-1.10145-1.4098-1.57338-2.11463 3.61813 3.2893 9.36018 7.43986 11.40478 8.61516-4.3254-4.54279-8.1798-10.1813-8.0228-10.02497 6.8432 6.89197 13.2146 10.80797 13.2146 10.80797.2108.1184.3735.2169.5043.305.1379-.3493.2588-.712.3607-1.088 1.1011-3.9942-.157-8.537-2.9103-12.296 6.3708 3.83752 10.1467 11.0425 8.5731 17.0732-.041.1627-.0856.3233-.1337.481 3.1458 3.9161 2.336 8.1342 1.9428 7.3511-1.7066-3.3252-4.8658-2.3084-6.472-1.6338z" fill="url(#a)"/></svg>